Coordinates
version=1
nRows=10
nColumns=40
inDegrees=yes

Units are S.I. units (second, meters, Newtons, ...)
Angles are in degrees.

endheader
time	pelvis_tilt	pelvis_list	pelvis_rotation	pelvis_tx	pelvis_ty	pelvis_tz	hip_flexion_r	hip_adduction_r	hip_rotation_r	knee_angle_r	knee_angle_r_beta	ankle_angle_r	subtalar_angle_r	mtp_angle_r	hip_flexion_l	hip_adduction_l	hip_rotation_l	knee_angle_l	knee_angle_l_beta	ankle_angle_l	subtalar_angle_l	mtp_angle_l	lumbar_extension	lumbar_bending	lumbar_rotation	arm_flex_r	arm_add_r	arm_rot_r	elbow_flex_r	pro_sup_r	wrist_flex_r	wrist_dev_r	arm_flex_l	arm_add_l	arm_rot_l	elbow_flex_l	pro_sup_l	wrist_flex_l	wrist_dev_l
     49.08500000	     -8.41014544	     -5.34666097	      5.41236703	      1.02581688	      0.91301695	      0.52329375	      1.50310722	      2.37884632	    -16.54808518	      9.82198824	      9.82198824	     17.60251242	      3.34021599	     -2.24445285	     35.87022596	     -6.46224957	      2.12060738	     20.31523746	     20.31523746	      5.38633578	     -8.65188936	      7.51947459	    -10.44483611	      6.01434346	      4.28301677	     42.55581858	    -13.37259667	      8.83631167	    116.81158722	     43.72675395	      0.00000000	      0.00000000	     -9.77194037	     -6.83930582	     -3.51253049	     32.17032848	     46.09919663	      0.00000000	      0.00000000
     49.09721429	     -8.29427474	     -5.35979462	      5.34734921	      1.02807342	      0.91152392	      0.52093861	      0.80893281	      2.26472777	    -16.30822432	     10.08070286	     10.08070286	     18.24116913	      3.23521514	     -1.67264995	     35.23474213	     -6.43810629	      1.69927241	     20.49434645	     20.49434645	      3.34063913	     -9.28100536	      3.73787364	    -10.29766665	      6.01773390	      4.26818757	     42.71680113	    -13.13769323	      9.11304746	    117.19227554	     43.78614039	      0.00000000	      0.00000000	    -10.11722942	     -7.08436445	     -1.91028851	     32.24194154	     45.85367626	      0.00000000	      0.00000000
     49.10942857	     -8.22827012	     -5.27687677	      5.28707834	      1.03023020	      0.91031671	      0.51839220	      0.17233786	      2.00930974	    -16.13868909	     10.32307599	     10.32307599	     18.54436538	      3.20135599	     -1.77091232	     34.85960730	     -6.29113278	      1.42283420	     21.20862340	     21.20862340	      2.88409936	     -9.56881324	      3.73774451	    -10.10346668	      5.90087017	      4.27792942	     42.55027279	    -13.05909649	      9.17039020	    117.23645017	     43.78586713	      0.00000000	      0.00000000	    -10.27910486	     -7.04272561	     -1.85660349	     32.17325339	     45.84340264	      0.00000000	      0.00000000
     49.12164286	     -8.19030803	     -5.22947578	      5.26714026	      1.03222729	      0.90919441	      0.51570489	     -0.20292981	      1.71339077	    -16.01915166	     10.99710788	     10.99710788	     18.92230536	      3.00503595	     -1.88627306	     34.66918408	     -6.14233969	      1.34330019	     22.16348780	     22.16348780	      2.42927113	    -10.00200278	      3.29926868	     -9.92499371	      5.83463534	      4.20116196	     42.31183089	    -12.93456753	      9.28835622	    117.25135232	     43.79532794	      0.00000000	      0.00000000	    -10.32205822	     -7.03155470	     -1.65983908	     32.07378035	     45.81461778	      0.00000000	      0.00000000
     49.13385714	     -8.08642060	     -5.12963359	      5.25684037	      1.03420162	      0.90856929	      0.51285285	     -0.62730143	      1.34641605	    -15.89362754	     11.70027823	     11.70027823	     19.16697095	      2.80841724	     -1.99371365	     34.40299672	     -5.92610029	      1.36578498	     23.12721523	     23.12721523	      2.19408570	    -10.46552802	      2.98462854	     -9.85281027	      5.71902651	      4.15345911	     41.82472850	    -12.91831950	      9.35364061	    117.04051776	     43.80995808	      0.00000000	      0.00000000	    -10.23053419	     -7.01995523	     -1.51566818	     31.98371489	     45.79549842	      0.00000000	      0.00000000
     49.14607143	     -7.97103719	     -5.00462739	      5.25793745	      1.03608186	      0.90835207	      0.50982650	     -0.94846084	      0.90406633	    -15.79353399	     12.60255695	     12.60255695	     19.30102490	      2.56687314	     -2.16287989	     34.13323850	     -5.64687642	      1.51171002	     24.10635014	     24.10635014	      2.19471148	    -11.00935222	      2.82611415	     -9.82376815	      5.59294045	      4.10508735	     41.13601530	    -12.95483439	      9.35115424	    116.65695820	     43.83111269	      0.00000000	      0.00000000	    -10.02431821	     -7.00358825	     -1.39620959	     31.87951854	     45.78180121	      0.00000000	      0.00000000
     49.15828571	     -7.71633543	     -4.87472201	      5.32666895	      1.03801962	      0.90881233	      0.50658987	     -1.49987821	      0.48938528	    -15.74902898	     13.32899387	     13.32899387	     19.23882543	      2.37080263	     -2.26600110	     33.65909938	     -5.34253632	      1.69967638	     24.98302935	     24.98302935	      2.43762468	    -11.39693306	      2.68344387	    -10.00981465	      5.50490515	      3.93214466	     40.25259042	    -12.98783735	      9.42877427	    116.31139610	     43.83879542	      0.00000000	      0.00000000	     -9.77393622	     -6.93738846	     -1.35904271	     31.90077780	     45.78035718	      0.00000000	      0.00000000
     49.17050000	     -7.75437830	     -4.72381921	      5.28429898	      1.03949386	      0.90909083	      0.50328424	     -1.17786140	     -0.16854506	    -15.66865658	     15.08015811	     15.08015811	     19.22524139	      1.95104289	     -2.87052207	     33.50636215	     -4.93298146	      2.08995983	     25.85531554	     25.85531554	      2.84308879	    -12.24842114	      3.13396150	     -9.84317715	      5.36826522	      4.08977794	     39.18286176	    -13.23411217	      9.12370975	    115.21583491	     43.89185471	      0.00000000	      0.00000000	     -9.28599661	     -6.91744632	     -1.29987950	     31.79344583	     45.77992270	      0.00000000	      0.00000000
     49.18271429	     -7.64647155	     -4.56019554	      5.30269129	      1.04107275	      0.91008989	      0.49982315	     -1.17265096	     -0.78496312	    -15.66587155	     16.45744864	     16.45744864	     18.57362308	      1.52835338	     -4.44757471	     33.13299039	     -4.46568663	      2.56363896	     26.67235582	     26.67235582	      4.08038248	    -12.82711630	      5.38590600	     -9.86764106	      5.25801956	      4.08956740	     37.89406255	    -13.09806375	      8.44549821	    113.94655218	     43.99940986	      0.00000000	      0.00000000	     -8.63296144	     -6.85935616	     -1.22659191	     31.26996071	     45.78194176	      0.00000000	      0.00000000
     49.19492857	     -7.54357790	     -4.45716496	      5.24379198	      1.04261449	      0.91129003	      0.49646719	     -0.93361787	     -1.39230295	    -15.52866921	     18.24870965	     18.24870965	     18.16452277	      1.07200569	     -5.05608105	     32.63075560	     -4.17466938	      2.70541850	     27.19622820	     27.19622820	      4.66153817	    -13.23029419	      5.52652041	     -9.91969137	      5.20472281	      4.26364486	     36.47544384	    -13.52399280	      8.44080820	    112.74257695	     44.04015989	      0.00000000	      0.00000000	     -8.10718647	     -6.81962216	     -1.29328210	     31.57633894	     45.79971017	      0.00000000	      0.00000000
